<!DOCTYPE svg PUBLIC "-//W3C//DTD SVG 1.1//EN" "http://www.w3.org/Graphics/SVG/1.1/DTD/svg11.dtd">
<!-- Uploaded to: SVG Repo, www.svgrepo.com, Transformed by: SVG Repo Mixer Tools -->
<svg width="16px" height="16px" viewBox="0 0 24 24" fill="none" xmlns="http://www.w3.org/2000/svg">

<g id="SVGRepo_bgCarrier" stroke-width="0"/>

<g id="SVGRepo_tracerCarrier" stroke-linecap="round" stroke-linejoin="round"/>

<g id="SVGRepo_iconCarrier"> <path d="M6.6 9H6C5.06812 9 4.60218 9 4.23463 8.84776C3.74458 8.64477 3.35523 8.25542 3.15224 7.76537C3 7.39782 3 6.93188 3 6C3 5.06812 3 4.60218 3.15224 4.23463C3.35523 3.74458 3.74458 3.35523 4.23463 3.15224C4.60218 3 5.06812 3 6 3H18C18.9319 3 19.3978 3 19.7654 3.15224C20.2554 3.35523 20.6448 3.74458 20.8478 4.23463C21 4.60218 21 5.06812 21 6C21 6.93188 21 7.39782 20.8478 7.76537C20.6448 8.25542 20.2554 8.64477 19.7654 8.84776C19.3978 9 18.9319 9 18 9H17.4M12 15V7M12 7L10 9M12 7L14 9M6 15H18C18.9319 15 19.3978 15 19.7654 15.1522C20.2554 15.3552 20.6448 15.7446 20.8478 16.2346C21 16.6022 21 17.0681 21 18C21 18.9319 21 19.3978 20.8478 19.7654C20.6448 20.2554 20.2554 20.6448 19.7654 20.8478C19.3978 21 18.9319 21 18 21H6C5.06812 21 4.60218 21 4.23463 20.8478C3.74458 20.6448 3.35523 20.2554 3.15224 19.7654C3 19.3978 3 18.9319 3 18C3 17.0681 3 16.6022 3.15224 16.2346C3.35523 15.7446 3.74458 15.3552 4.23463 15.1522C4.60218 15 5.06812 15 6 15Z" stroke="#ffffff" stroke-width="2" stroke-linecap="round" stroke-linejoin="round"/> </g>

</svg>