<!DOCTYPE svg PUBLIC "-//W3C//DTD SVG 1.1//EN" "http://www.w3.org/Graphics/SVG/1.1/DTD/svg11.dtd">
<!-- Uploaded to: SVG Repo, www.svgrepo.com, Transformed by: SVG Repo Mixer Tools -->
<svg width="16px" height="16px" viewBox="0 0 24 24" fill="none" xmlns="http://www.w3.org/2000/svg">

<g id="SVGRepo_bgCarrier" stroke-width="0"/>

<g id="SVGRepo_tracerCarrier" stroke-linecap="round" stroke-linejoin="round"/>

<g id="SVGRepo_iconCarrier"> <path d="M5 6C5 5.44771 5.44772 5 6 5C6.55229 5 7 5.44771 7 6C7 6.55229 6.55229 7 6 7C5.44772 7 5 6.55229 5 6Z" fill="#FFFFFF"/> <path d="M5 10C5 9.44771 5.44772 9 6 9C6.55229 9 7 9.44771 7 10C7 10.5523 6.55229 11 6 11C5.44772 11 5 10.5523 5 10Z" fill="#FFFFFF"/> <path d="M10 9C9.44772 9 9 9.44771 9 10C9 10.5523 9.44772 11 10 11H14C14.5523 11 15 10.5523 15 10C15 9.44771 14.5523 9 14 9H10Z" fill="#FFFFFF"/> <path d="M17 10C17 9.44771 17.4477 9 18 9C18.5523 9 19 9.44771 19 10C19 10.5523 18.5523 11 18 11C17.4477 11 17 10.5523 17 10Z" fill="#FFFFFF"/> <path d="M9 6C9 5.44771 9.44771 5 10 5C10.5523 5 11 5.44771 11 6C11 6.55229 10.5523 7 10 7C9.44771 7 9 6.55229 9 6Z" fill="#FFFFFF"/> <path d="M13 6C13 5.44771 13.4477 5 14 5C14.5523 5 15 5.44771 15 6C15 6.55229 14.5523 7 14 7C13.4477 7 13 6.55229 13 6Z" fill="#FFFFFF"/> <path d="M17 6C17 5.44771 17.4477 5 18 5C18.5523 5 19 5.44771 19 6C19 6.55229 18.5523 7 18 7C17.4477 7 17 6.55229 17 6Z" fill="#FFFFFF"/> <path fill-rule="evenodd" clip-rule="evenodd" d="M20 1C21.6569 1 23 2.34315 23 4V12C23 13.6569 21.6569 15 20 15H4C2.34315 15 1 13.6569 1 12V4C1 2.34315 2.34315 1 4 1H20ZM20 3C20.5523 3 21 3.44771 21 4V12C21 12.5523 20.5523 13 20 13H4C3.44772 13 3 12.5523 3 12V4C3 3.44772 3.44772 3 4 3H20Z" fill="#FFFFFF"/> <path d="M16.1924 21.2426C16.5829 21.6331 16.5829 22.2663 16.1924 22.6568C15.8019 23.0473 15.1687 23.0473 14.7782 22.6568L11.9498 19.8284L9.12132 22.6569C8.7308 23.0474 8.09763 23.0474 7.70711 22.6569C7.31658 22.2664 7.31658 21.6332 7.70711 21.2427L10.5355 18.4143C10.5355 18.4143 10.5356 18.4142 10.5355 18.4143C11.3166 17.6332 12.5829 17.6331 13.364 18.4142L16.1924 21.2426Z" fill="#FFFFFF"/> </g>

</svg>
