<!DOCTYPE svg PUBLIC "-//W3C//DTD SVG 1.1//EN" "http://www.w3.org/Graphics/SVG/1.1/DTD/svg11.dtd">
<!-- Uploaded to: SVG Repo, www.svgrepo.com, Transformed by: SVG Repo Mixer Tools -->
<svg width="16px" height="16px" viewBox="0 0 24 24" fill="none" xmlns="http://www.w3.org/2000/svg">

<g id="SVGRepo_bgCarrier" stroke-width="0"/>

<g id="SVGRepo_tracerCarrier" stroke-linecap="round" stroke-linejoin="round"/>

<g id="SVGRepo_iconCarrier"> <path fill-rule="evenodd" clip-rule="evenodd" d="M12.4856 1.12584C12.1836 0.958052 11.8164 0.958052 11.5144 1.12584L2.51436 6.12584L2.5073 6.13784L2.49287 6.13802C2.18749 6.3177 2 6.64568 2 7V16.9999C2 17.3631 2.19689 17.6977 2.51436 17.874L11.5022 22.8673C11.8059 23.0416 12.1791 23.0445 12.4856 22.8742L21.4856 17.8742C21.8031 17.6978 22 17.3632 22 17V7C22 6.64568 21.8125 6.31781 21.5071 6.13813C21.4996 6.13372 21.4921 6.12942 21.4845 6.12522L12.4856 1.12584ZM5.05923 6.99995L12.0001 10.856L14.4855 9.47519L7.74296 5.50898L5.05923 6.99995ZM16.5142 8.34816L18.9409 7L12 3.14396L9.77162 4.38195L16.5142 8.34816ZM4 16.4115V8.69951L11 12.5884V20.3004L4 16.4115ZM13 20.3005V12.5884L20 8.69951V16.4116L13 20.3005Z" fill="#FFFFFF"/> </g>

</svg>
