<!DOCTYPE svg PUBLIC "-//W3C//DTD SVG 1.1//EN" "http://www.w3.org/Graphics/SVG/1.1/DTD/svg11.dtd">
<!-- Uploaded to: SVG Repo, www.svgrepo.com, Transformed by: SVG Repo Mixer Tools -->
<svg width="16px" height="16px" viewBox="0 0 24 24" fill="none" xmlns="http://www.w3.org/2000/svg">

<g id="SVGRepo_bgCarrier" stroke-width="0"/>

<g id="SVGRepo_tracerCarrier" stroke-linecap="round" stroke-linejoin="round"/>

<g id="SVGRepo_iconCarrier"> <path d="M12 3V6.4C12 6.96005 12 7.24008 12.109 7.45399C12.2049 7.64215 12.3578 7.79513 12.546 7.89101C12.7599 8 13.0399 8 13.6 8H16M14 19C14 20.1046 13.1046 21 12 21C10.8954 21 10 20.1046 10 19M14 19C14 17.8954 13.1046 17 12 17M14 19H21M10 19C10 17.8954 10.8954 17 12 17M10 19H3M12 17V13M16 7.28127V11.4C16 11.9601 16 12.2401 15.891 12.454C15.7951 12.6422 15.6422 12.7951 15.454 12.891C15.2401 13 14.9601 13 14.4 13H9.6C9.03995 13 8.75992 13 8.54601 12.891C8.35785 12.7951 8.20487 12.6422 8.10899 12.454C8 12.2401 8 11.9601 8 11.4V4.6C8 4.03995 8 3.75992 8.10899 3.54601C8.20487 3.35785 8.35785 3.20487 8.54601 3.10899C8.75992 3 9.03995 3 9.6 3H11.8193C12.0703 3 12.1958 3 12.3136 3.02898C12.4179 3.05468 12.5175 3.09703 12.6084 3.15442C12.7109 3.21916 12.798 3.30959 12.9721 3.49045L15.5528 6.17172C15.718 6.34333 15.8005 6.42914 15.8596 6.52838C15.9119 6.61637 15.9504 6.71188 15.9737 6.81156C16 6.92398 16 7.04307 16 7.28127Z" stroke="#ffffff" stroke-width="2" stroke-linecap="round" stroke-linejoin="round"/> </g>

</svg>