<!DOCTYPE svg PUBLIC "-//W3C//DTD SVG 1.1//EN" "http://www.w3.org/Graphics/SVG/1.1/DTD/svg11.dtd">
<!-- Uploaded to: SVG Repo, www.svgrepo.com, Transformed by: SVG Repo Mixer Tools -->
<svg width="16px" height="16px" viewBox="0 0 16 16" fill="none" xmlns="http://www.w3.org/2000/svg">

<g id="SVGRepo_bgCarrier" stroke-width="0"/>

<g id="SVGRepo_tracerCarrier" stroke-linecap="round" stroke-linejoin="round"/>

<g id="SVGRepo_iconCarrier"> <path d="M0 3H3V5H0V3Z" fill="#c6c6c6"/> <path d="M0 11H3V13H0V11Z" fill="#c6c6c6"/> <path d="M5 11H11V13H5V11Z" fill="#c6c6c6"/> <path d="M16 11H13V13H16V11Z" fill="#c6c6c6"/> <path d="M7 3H5V5H7V3Z" fill="#c6c6c6"/> <path d="M9 3H11V5H9V3Z" fill="#c6c6c6"/> <path d="M16 3H13V5H16V3Z" fill="#c6c6c6"/> <path d="M0 7H3V9H0V7Z" fill="#c6c6c6"/> <path d="M7 7H5V9H7V7Z" fill="#c6c6c6"/> <path d="M9 7H11V9H9V7Z" fill="#c6c6c6"/> <path d="M16 7H13V9H16V7Z" fill="#c6c6c6"/> </g>

</svg>
