# Blender 4.0.2
# www.blender.org
mtllib cloak.mtl
o Plane
v 0.748775 3.271961 0.636537
v 0.999181 1.011853 1.353488
v 0.748775 3.271961 -0.636537
v 0.999181 1.011853 -1.353488
v 0.659992 3.044467 0.907740
v 0.705892 2.578861 0.997503
v 0.824186 2.142029 1.139340
v 0.892373 1.745622 1.242885
v 0.892373 1.745622 -1.242885
v 0.824186 2.142029 -1.139340
v 0.705892 2.578861 -0.997503
v 0.659992 3.044467 -0.907740
v 0.891398 3.261358 -0.398189
v 0.985655 3.254352 -0.140092
v 0.985655 3.254352 0.140092
v 0.891398 3.261358 0.398189
v 1.068572 1.036479 0.809322
v 1.153767 1.066712 0.259363
v 1.153767 1.066712 -0.259363
v 1.068572 1.036479 -0.809322
v 0.808065 3.035144 0.541674
v 1.013743 3.019880 0.202127
v 1.013743 3.019880 -0.202127
v 0.808065 3.035144 -0.541674
v 0.862994 2.591013 0.599835
v 1.060682 2.605391 0.209270
v 1.060682 2.605391 -0.209270
v 0.862994 2.591013 -0.599835
v 0.940594 2.170826 0.691033
v 1.079654 2.215726 0.219850
v 1.079654 2.215726 -0.219850
v 0.940594 2.170826 -0.691033
v 0.995542 1.782234 0.741921
v 1.119654 1.826279 0.233278
v 1.119654 1.826279 -0.233278
v 0.995542 1.782234 -0.741921
v 0.907102 1.365013 1.312920
v 0.907102 1.365013 -1.312920
v 1.019994 1.405076 0.780377
v 1.138824 1.447246 0.245657
v 1.138824 1.447246 -0.245657
v 1.019994 1.405076 -0.780377
v 0.739769 3.271434 0.632223
v 0.989550 1.009808 1.351735
v 0.739769 3.271434 -0.632223
v 0.989550 1.009808 -1.351735
v 0.650860 3.043171 0.903877
v 0.696763 2.576518 0.994162
v 0.814833 2.139678 1.136695
v 0.882703 1.744338 1.240685
v 0.882703 1.744338 -1.240685
v 0.814833 2.139678 -1.136695
v 0.696763 2.576518 -0.994162
v 0.650860 3.043171 -0.903877
v 0.882454 3.260566 -0.393788
v 0.975913 3.253254 -0.138119
v 0.975913 3.253254 0.138119
v 0.882454 3.260566 0.393788
v 1.058860 1.034947 0.807498
v 1.143839 1.066034 0.258372
v 1.143839 1.066034 -0.258372
v 1.058860 1.034947 -0.807498
v 0.799103 3.034072 0.537370
v 1.004145 3.018694 0.199584
v 1.004145 3.018694 -0.199584
v 0.799103 3.034072 -0.537370
v 0.853936 2.589169 0.596019
v 1.050988 2.604226 0.207109
v 1.050988 2.604226 -0.207109
v 0.853936 2.589169 -0.596019
v 0.931245 2.168837 0.688094
v 1.069854 2.214591 0.218216
v 1.069854 2.214591 -0.218216
v 0.931245 2.168837 -0.688094
v 0.985903 1.781006 0.739562
v 1.109778 1.825356 0.232012
v 1.109778 1.825356 -0.232012
v 0.985903 1.781006 -0.739562
v 0.897401 1.363509 1.311012
v 0.897401 1.363509 -1.311012
v 1.010262 1.403967 0.778359
v 1.128901 1.446609 0.244591
v 1.128901 1.446609 -0.244591
v 1.010262 1.403967 -0.778359
vn 0.9731 0.1108 -0.2018
vn 0.7945 -0.5975 -0.1081
vn 0.5635 -0.4530 -0.6908
vn 0.4948 0.1859 -0.8489
vn 0.6113 0.7410 -0.2779
vn 0.8962 0.1072 -0.4305
vn 0.2714 0.4584 -0.8463
vn 0.4037 0.7864 -0.4675
vn 0.9057 0.1844 -0.3816
vn 0.3628 0.2843 -0.8875
vn 0.9349 0.1989 -0.2939
vn 0.4507 0.3086 -0.8376
vn 0.9640 0.1229 -0.2359
vn 0.5219 0.2210 -0.8239
vn 0.4507 0.3086 0.8376
vn 0.5219 0.2210 0.8239
vn 0.9640 0.1229 0.2359
vn 0.9349 0.1989 0.2939
vn 0.9877 0.0922 0.1266
vn 0.9800 0.1135 0.1634
vn 0.9877 0.0922 -0.1266
vn 0.9800 0.1135 -0.1634
vn 0.3628 0.2843 0.8875
vn 0.9057 0.1844 0.3816
vn 0.9694 0.1165 0.2162
vn 0.9694 0.1165 -0.2162
vn 0.2714 0.4584 0.8463
vn 0.8962 0.1072 0.4305
vn 0.9598 0.1186 0.2542
vn 0.9598 0.1186 -0.2542
vn 0.4037 0.7864 0.4675
vn 0.6113 0.7410 0.2779
vn 0.6604 0.7400 0.1273
vn 0.6604 0.7400 -0.1273
vn 0.4948 0.1859 0.8489
vn 0.5635 -0.4530 0.6908
vn 0.7945 -0.5975 0.1081
vn 0.9731 0.1108 0.2018
vn 0.7782 -0.6253 0.0586
vn 0.9923 0.0637 0.1066
vn 0.7782 -0.6253 -0.0586
vn 0.9923 0.0637 -0.1066
vn -0.9731 -0.1108 0.2018
vn -0.8417 -0.0270 -0.5393
vn -0.5393 -0.6781 -0.4993
vn -0.5796 -0.8011 0.1494
vn -0.6570 0.6689 0.3478
vn -0.7301 0.6779 0.0862
vn -0.8844 0.2990 -0.3583
vn -0.8961 -0.1072 0.4307
vn -0.9240 -0.0561 -0.3782
vn -0.9056 -0.1844 0.3819
vn -0.8738 -0.0174 -0.4860
vn -0.9349 -0.1990 0.2940
vn -0.8425 0.0453 -0.5368
vn -0.9640 -0.1229 0.2360
vn -0.8738 -0.0174 0.4860
vn -0.9349 -0.1990 -0.2940
vn -0.9640 -0.1229 -0.2360
vn -0.8425 0.0453 0.5368
vn -0.9800 -0.1135 -0.1636
vn -0.9876 -0.0922 -0.1267
vn -0.9800 -0.1135 0.1636
vn -0.9876 -0.0922 0.1267
vn -0.9240 -0.0561 0.3782
vn -0.9056 -0.1844 -0.3819
vn -0.9693 -0.1165 -0.2164
vn -0.9693 -0.1165 0.2164
vn -0.8844 0.2990 0.3583
vn -0.8961 -0.1072 -0.4307
vn -0.9598 -0.1187 -0.2544
vn -0.9598 -0.1187 0.2544
vn -0.7301 0.6779 -0.0862
vn -0.6570 0.6689 -0.3478
vn -0.7274 0.6686 -0.1544
vn -0.7274 0.6686 0.1544
vn -0.8417 -0.0270 0.5393
vn -0.9731 -0.1108 -0.2018
vn -0.5796 -0.8011 -0.1494
vn -0.5393 -0.6781 0.4993
vn -0.9923 -0.0637 -0.1067
vn -0.6292 -0.7728 -0.0830
vn -0.9923 -0.0637 0.1067
vn -0.6292 -0.7728 0.0830
vt 0.900000 0.800000
vt 1.000000 0.800000
vt 1.000000 1.000000
vt 0.900000 1.000000
vt 0.000000 0.800000
vt 0.200000 0.800000
vt 0.200000 1.000000
vt 0.000000 1.000000
vt 0.400000 0.800000
vt 0.400000 1.000000
vt 0.600000 0.800000
vt 0.600000 1.000000
vt 0.800000 0.800000
vt 0.800000 1.000000
vt 0.600000 0.000000
vt 0.800000 0.000000
vt 0.800000 0.200000
vt 0.600000 0.200000
vt 0.800000 0.400000
vt 0.600000 0.400000
vt 0.800000 0.600000
vt 0.600000 0.600000
vt 0.400000 0.000000
vt 0.400000 0.200000
vt 0.400000 0.400000
vt 0.400000 0.600000
vt 0.200000 0.000000
vt 0.200000 0.200000
vt 0.200000 0.400000
vt 0.200000 0.600000
vt 0.000000 0.000000
vt 0.000000 0.200000
vt 0.000000 0.400000
vt 0.000000 0.600000
vt 0.900000 0.000000
vt 1.000000 0.000000
vt 1.000000 0.200000
vt 0.900000 0.200000
vt 1.000000 0.400000
vt 0.900000 0.400000
vt 1.000000 0.600000
vt 0.900000 0.600000
s 1
f 42/1/1 20/2/2 4/3/3 38/4/4
f 13/5/5 24/6/6 12/7/7 3/8/8
f 24/6/6 28/9/9 11/10/10 12/7/7
f 28/9/9 32/11/11 10/12/12 11/10/10
f 32/11/11 36/13/13 9/14/14 10/12/12
f 7/15/15 8/16/16 33/17/17 29/18/18
f 29/18/18 33/17/17 34/19/19 30/20/20
f 30/20/20 34/19/19 35/21/21 31/22/22
f 31/22/22 35/21/21 36/13/13 32/11/11
f 6/23/23 7/15/15 29/18/18 25/24/24
f 25/24/24 29/18/18 30/20/20 26/25/25
f 26/25/25 30/20/20 31/22/22 27/26/26
f 27/26/26 31/22/22 32/11/11 28/9/9
f 5/27/27 6/23/23 25/24/24 21/28/28
f 21/28/28 25/24/24 26/25/25 22/29/29
f 22/29/29 26/25/25 27/26/26 23/30/30
f 23/30/30 27/26/26 28/9/9 24/6/6
f 1/31/31 5/27/27 21/28/28 16/32/32
f 16/32/32 21/28/28 22/29/29 15/33/33
f 15/33/33 22/29/29 23/30/30 14/34/34
f 14/34/34 23/30/30 24/6/6 13/5/5
f 37/35/35 2/36/36 17/37/37 39/38/38
f 39/38/38 17/37/37 18/39/39 40/40/40
f 40/40/40 18/39/39 19/41/41 41/42/42
f 41/42/42 19/41/41 20/2/2 42/1/1
f 35/21/21 41/42/42 42/1/1 36/13/13
f 34/19/19 40/40/40 41/42/42 35/21/21
f 33/17/17 39/38/38 40/40/40 34/19/19
f 8/16/16 37/35/35 39/38/38 33/17/17
f 36/13/13 42/1/1 38/4/4 9/14/14
f 84/1/43 80/4/44 46/3/45 62/2/46
f 55/5/47 45/8/48 54/7/49 66/6/50
f 66/6/50 54/7/49 53/10/51 70/9/52
f 70/9/52 53/10/51 52/12/53 74/11/54
f 74/11/54 52/12/53 51/14/55 78/13/56
f 49/15/57 71/18/58 75/17/59 50/16/60
f 71/18/58 72/20/61 76/19/62 75/17/59
f 72/20/61 73/22/63 77/21/64 76/19/62
f 73/22/63 74/11/54 78/13/56 77/21/64
f 48/23/65 67/24/66 71/18/58 49/15/57
f 67/24/66 68/25/67 72/20/61 71/18/58
f 68/25/67 69/26/68 73/22/63 72/20/61
f 69/26/68 70/9/52 74/11/54 73/22/63
f 47/27/69 63/28/70 67/24/66 48/23/65
f 63/28/70 64/29/71 68/25/67 67/24/66
f 64/29/71 65/30/72 69/26/68 68/25/67
f 65/30/72 66/6/50 70/9/52 69/26/68
f 43/31/73 58/32/74 63/28/70 47/27/69
f 58/32/74 57/33/75 64/29/71 63/28/70
f 57/33/75 56/34/76 65/30/72 64/29/71
f 56/34/76 55/5/47 66/6/50 65/30/72
f 79/35/77 81/38/78 59/37/79 44/36/80
f 81/38/78 82/40/81 60/39/82 59/37/79
f 82/40/81 83/42/83 61/41/84 60/39/82
f 83/42/83 84/1/43 62/2/46 61/41/84
f 77/21/64 78/13/56 84/1/43 83/42/83
f 76/19/62 77/21/64 83/42/83 82/40/81
f 75/17/59 76/19/62 82/40/81 81/38/78
f 50/16/60 75/17/59 81/38/78 79/35/77
f 78/13/56 51/14/55 80/4/44 84/1/43
f 1/31/31 16/32/32 58/32/74 43/31/73
f 2/36/36 37/35/35 79/35/77 44/36/80
f 4/3/3 20/2/2 62/2/46 46/3/45
f 3/8/8 12/7/7 54/7/49 45/8/48
f 5/27/27 1/31/31 43/31/73 47/27/69
f 6/23/23 5/27/27 47/27/69 48/23/65
f 7/15/15 6/23/23 48/23/65 49/15/57
f 8/16/16 7/15/15 49/15/57 50/16/60
f 9/14/14 38/4/4 80/4/44 51/14/55
f 10/12/12 9/14/14 51/14/55 52/12/53
f 11/10/10 10/12/12 52/12/53 53/10/51
f 12/7/7 11/10/10 53/10/51 54/7/49
f 13/5/5 3/8/8 45/8/48 55/5/47
f 14/34/34 13/5/5 55/5/47 56/34/76
f 15/33/33 14/34/34 56/34/76 57/33/75
f 16/32/32 15/33/33 57/33/75 58/32/74
f 17/37/37 2/36/36 44/36/80 59/37/79
f 18/39/39 17/37/37 59/37/79 60/39/82
f 19/41/41 18/39/39 60/39/82 61/41/84
f 20/2/2 19/41/41 61/41/84 62/2/46
f 37/35/35 8/16/16 50/16/60 79/35/77
f 38/4/4 4/3/3 46/3/45 80/4/44
